<svg xmlns="http://www.w3.org/2000/svg" width="24" height="24" viewBox="0 0 24 24"><path d="M11 24v-3.022h-1v3.022h-2v-3.022h-4.969l.5-2.978h1.079c.884 0 1.39-.851 1.39-1.707v-8.889c0-.833-.485-1.404-1.365-1.404h-1.635v-3h5v-3h2v3h1v-3h2v3.053c4.315.146 6.024 1.781 6.514 3.625.58 2.18-.857 4.01-2.093 4.456 1.501.382 3.579 1.491 3.579 4.05 0 3.483-2.688 5.816-8 5.816v3h-2zm-1-11.006v5.006c3.969 0 6.688-.375 6.688-2.516 0-2.296-2.938-2.49-6.688-2.49zm0-1.994c2.211 0 5.578-.156 5.578-2.5 0-2-2.078-2.5-5.578-2.5v5z"/></svg>